# xmcd
#
# Track frame offsets: 
#        150
#        31152
#        64031
#        103373
#        143836
#        176216
#        209911
#        248939
#        280089
#
# Disc length: 4216 seconds
#
# Revision: 1
# Processed by: cddbd v1.4PL0 Copyright (c) Steve Scherf et al.
# Submitted via: ExactAudioCopy v0.95a3
#
DISCID=8e107609
DTITLE=Various Artist - Jazz Jungle
DYEAR=1999
DGENRE=Jazz
TTITLE0=Shifty/Jazz Ass
TTITLE1=Twisted/New York
TTITLE2=New Jazz Hustlers/Bombay
TTITLE3=In Deep/Rhythm Factor 
TTITLE4=New Jazz Hustlers/Easy Ride
TTITLE5=New Jazz Hustlers/Tales
TTITLE6=Parallax/Dovima's Fantasy
TTITLE7=Shifty/Jelly Head
TTITLE8=Parallax/Expletive Deletive
EXTD=
EXTT0=
EXTT1=
EXTT2=
EXTT3=
EXTT4=
EXTT5=
EXTT6=
EXTT7=
EXTT8=
PLAYORDER=
